<?xml version="1.0" encoding="UTF-8" standalone="no"?>
<!DOCTYPE svg PUBLIC "-//W3C//DTD SVG 1.1//EN"
 "http://www.w3.org/Graphics/SVG/1.1/DTD/svg11.dtd">
<!-- Generated by graphviz version 2.38.0 (20140413.2041)
 -->
<!-- Title: %3 Pages: 1 -->
<svg width="2895pt" height="116pt"
 viewBox="0.00 0.00 2895.23 116.00" xmlns="http://www.w3.org/2000/svg" xmlns:xlink="http://www.w3.org/1999/xlink">
<g id="graph0" class="graph" transform="scale(1 1) rotate(0) translate(4 112)">
<title>%3</title>
<polygon fill="white" stroke="none" points="-4,4 -4,-112 2891.23,-112 2891.23,4 -4,4"/>
<!-- ParentIon -->
<g id="node1" class="node"><title>ParentIon</title>
<ellipse fill="none" stroke="black" stroke-width="3" cx="1433.84" cy="-90" rx="88.2844" ry="18"/>
<text text-anchor="middle" x="1433.84" y="-86.3" font-family="Times New Roman,serif" font-size="14.00">219.1758 +/&#45; 0.00011</text>
</g>
<!-- DaughterIon_0 -->
<g id="node2" class="node"><title>DaughterIon_0</title>
<ellipse fill="none" stroke="#fde725" stroke-width="3" cx="83.8426" cy="-18" rx="83.6854" ry="18"/>
<text text-anchor="middle" x="83.8426" y="-14.3" font-family="Times New Roman,serif" font-size="14.00">77.0387 +/&#45; 0.00019</text>
</g>
<!-- ParentIon&#45;&gt;DaughterIon_0 -->
<g id="edge1" class="edge"><title>ParentIon&#45;&gt;DaughterIon_0</title>
<path fill="none" stroke="black" stroke-width="2.5" d="M1345.13,-89.4747C1139.22,-89.6576 613.148,-84.8371 176.843,-36 168.841,-35.1044 160.491,-33.9278 152.22,-32.6108"/>
<polygon fill="black" stroke="black" stroke-width="2.5" points="152.638,-29.1323 142.2,-30.9441 151.49,-36.0374 152.638,-29.1323"/>
</g>
<!-- DaughterIon_1 -->
<g id="node3" class="node"><title>DaughterIon_1</title>
<ellipse fill="none" stroke="#fde725" stroke-width="3" cx="273.843" cy="-18" rx="88.2844" ry="18"/>
<text text-anchor="middle" x="273.843" y="-14.3" font-family="Times New Roman,serif" font-size="14.00">100.1127 +/&#45; 0.00025</text>
</g>
<!-- ParentIon&#45;&gt;DaughterIon_1 -->
<g id="edge2" class="edge"><title>ParentIon&#45;&gt;DaughterIon_1</title>
<path fill="none" stroke="black" stroke-width="2.5" d="M1345.79,-88.229C1163.48,-85.836 731.677,-76.0381 371.843,-36 363.301,-35.0496 354.377,-33.8262 345.541,-32.4719"/>
<polygon fill="black" stroke="black" stroke-width="2.5" points="346.054,-29.0096 335.628,-30.8948 344.954,-35.9226 346.054,-29.0096"/>
</g>
<!-- DaughterIon_2 -->
<g id="node4" class="node"><title>DaughterIon_2</title>
<ellipse fill="none" stroke="#fde725" stroke-width="3" cx="468.843" cy="-18" rx="88.2844" ry="18"/>
<text text-anchor="middle" x="468.843" y="-14.3" font-family="Times New Roman,serif" font-size="14.00">105.0704 +/&#45; 0.00026</text>
</g>
<!-- ParentIon&#45;&gt;DaughterIon_2 -->
<g id="edge3" class="edge"><title>ParentIon&#45;&gt;DaughterIon_2</title>
<path fill="none" stroke="black" stroke-width="2.5" d="M1346.49,-86.8569C1189.82,-82.302 850.865,-69.2125 566.843,-36 558.46,-35.0198 549.706,-33.7942 541.028,-32.4527"/>
<polygon fill="black" stroke="black" stroke-width="2.5" points="541.33,-28.9565 530.903,-30.8323 540.224,-35.8686 541.33,-28.9565"/>
</g>
<!-- DaughterIon_3 -->
<g id="node5" class="node"><title>DaughterIon_3</title>
<ellipse fill="none" stroke="#fde725" stroke-width="3" cx="663.843" cy="-18" rx="88.2844" ry="18"/>
<text text-anchor="middle" x="663.843" y="-14.3" font-family="Times New Roman,serif" font-size="14.00">107.0499 +/&#45; 0.00027</text>
</g>
<!-- ParentIon&#45;&gt;DaughterIon_3 -->
<g id="edge4" class="edge"><title>ParentIon&#45;&gt;DaughterIon_3</title>
<path fill="none" stroke="black" stroke-width="2.5" d="M1348.98,-84.8452C1221.26,-78.0185 972.151,-62.4762 761.843,-36 753.592,-34.9613 744.978,-33.7119 736.429,-32.3677"/>
<polygon fill="black" stroke="black" stroke-width="2.5" points="736.879,-28.8951 726.448,-30.7532 735.761,-35.8053 736.879,-28.8951"/>
</g>
<!-- DaughterIon_4 -->
<g id="node6" class="node"><title>DaughterIon_4</title>
<ellipse fill="none" stroke="#89d548" stroke-width="3" cx="858.843" cy="-18" rx="88.2844" ry="18"/>
<text text-anchor="middle" x="858.843" y="-14.3" font-family="Times New Roman,serif" font-size="14.00">117.0701 +/&#45; 0.00029</text>
</g>
<!-- ParentIon&#45;&gt;DaughterIon_4 -->
<g id="edge5" class="edge"><title>ParentIon&#45;&gt;DaughterIon_4</title>
<path fill="none" stroke="black" stroke-width="2.5" d="M1354.99,-81.7944C1260.07,-72.7661 1095.94,-56.0235 955.843,-36 948.107,-34.8945 940.042,-33.6418 932.012,-32.3299"/>
<polygon fill="black" stroke="black" stroke-width="2.5" points="932.325,-28.8339 921.886,-30.6429 931.175,-35.7387 932.325,-28.8339"/>
</g>
<!-- DaughterIon_5 -->
<g id="node7" class="node"><title>DaughterIon_5</title>
<ellipse fill="none" stroke="#fde725" stroke-width="3" cx="1048.84" cy="-18" rx="83.6854" ry="18"/>
<text text-anchor="middle" x="1048.84" y="-14.3" font-family="Times New Roman,serif" font-size="14.00">118.0419 +/&#45; 0.0003</text>
</g>
<!-- ParentIon&#45;&gt;DaughterIon_5 -->
<g id="edge6" class="edge"><title>ParentIon&#45;&gt;DaughterIon_5</title>
<path fill="none" stroke="black" stroke-width="2.5" d="M1370.04,-77.4432C1310.88,-66.7218 1220.41,-50.3112 1141.84,-36 1134.85,-34.726 1127.56,-33.3965 1120.27,-32.0668"/>
<polygon fill="black" stroke="black" stroke-width="2.5" points="1120.84,-28.6118 1110.37,-30.2584 1119.58,-35.498 1120.84,-28.6118"/>
</g>
<!-- DaughterIon_6 -->
<g id="node8" class="node"><title>DaughterIon_6</title>
<ellipse fill="none" stroke="#fde725" stroke-width="3" cx="1238.84" cy="-18" rx="88.2844" ry="18"/>
<text text-anchor="middle" x="1238.84" y="-14.3" font-family="Times New Roman,serif" font-size="14.00">128.0567 +/&#45; 0.00032</text>
</g>
<!-- ParentIon&#45;&gt;DaughterIon_6 -->
<g id="edge7" class="edge"><title>ParentIon&#45;&gt;DaughterIon_6</title>
<path fill="none" stroke="black" stroke-width="2.5" d="M1392.01,-73.9832C1362.19,-63.2798 1321.93,-48.8267 1290.17,-37.4249"/>
<polygon fill="black" stroke="black" stroke-width="2.5" points="1291.2,-34.0765 1280.61,-33.9919 1288.84,-40.6648 1291.2,-34.0765"/>
</g>
<!-- DaughterIon_7 -->
<g id="node9" class="node"><title>DaughterIon_7</title>
<ellipse fill="none" stroke="#277e8e" stroke-width="3" cx="1433.84" cy="-18" rx="88.2844" ry="18"/>
<text text-anchor="middle" x="1433.84" y="-14.3" font-family="Times New Roman,serif" font-size="14.00">131.0868 +/&#45; 0.00033</text>
</g>
<!-- ParentIon&#45;&gt;DaughterIon_7 -->
<g id="edge8" class="edge"><title>ParentIon&#45;&gt;DaughterIon_7</title>
<path fill="none" stroke="black" stroke-width="2.5" d="M1433.84,-71.6966C1433.84,-63.9827 1433.84,-54.7125 1433.84,-46.1124"/>
<polygon fill="black" stroke="black" stroke-width="2.5" points="1437.34,-46.1043 1433.84,-36.1043 1430.34,-46.1044 1437.34,-46.1043"/>
</g>
<!-- DaughterIon_8 -->
<g id="node10" class="node"><title>DaughterIon_8</title>
<ellipse fill="none" stroke="#fde725" stroke-width="3" cx="1628.84" cy="-18" rx="88.2844" ry="18"/>
<text text-anchor="middle" x="1628.84" y="-14.3" font-family="Times New Roman,serif" font-size="14.00">133.1024 +/&#45; 0.00033</text>
</g>
<!-- ParentIon&#45;&gt;DaughterIon_8 -->
<g id="edge9" class="edge"><title>ParentIon&#45;&gt;DaughterIon_8</title>
<path fill="none" stroke="black" stroke-width="2.5" d="M1475.67,-73.9832C1505.49,-63.2798 1545.75,-48.8267 1577.52,-37.4249"/>
<polygon fill="black" stroke="black" stroke-width="2.5" points="1578.85,-40.6648 1587.08,-33.9919 1576.48,-34.0765 1578.85,-40.6648"/>
</g>
<!-- DaughterIon_9 -->
<g id="node11" class="node"><title>DaughterIon_9</title>
<ellipse fill="none" stroke="#fde725" stroke-width="3" cx="1823.84" cy="-18" rx="88.2844" ry="18"/>
<text text-anchor="middle" x="1823.84" y="-14.3" font-family="Times New Roman,serif" font-size="14.00">143.1186 +/&#45; 0.00036</text>
</g>
<!-- ParentIon&#45;&gt;DaughterIon_9 -->
<g id="edge10" class="edge"><title>ParentIon&#45;&gt;DaughterIon_9</title>
<path fill="none" stroke="black" stroke-width="2.5" d="M1497.81,-77.5193C1566.95,-65.1094 1676.99,-45.3574 1749.82,-32.2856"/>
<polygon fill="black" stroke="black" stroke-width="2.5" points="1750.62,-35.6986 1759.84,-30.487 1749.38,-28.8087 1750.62,-35.6986"/>
</g>
<!-- DaughterIon_10 -->
<g id="node12" class="node"><title>DaughterIon_10</title>
<ellipse fill="none" stroke="#fde725" stroke-width="3" cx="2018.84" cy="-18" rx="88.2844" ry="18"/>
<text text-anchor="middle" x="2018.84" y="-14.3" font-family="Times New Roman,serif" font-size="14.00">151.0325 +/&#45; 0.00038</text>
</g>
<!-- ParentIon&#45;&gt;DaughterIon_10 -->
<g id="edge11" class="edge"><title>ParentIon&#45;&gt;DaughterIon_10</title>
<path fill="none" stroke="black" stroke-width="2.5" d="M1512.9,-81.949C1609.4,-72.9843 1777.47,-56.2167 1920.84,-36 1928.8,-34.8773 1937.11,-33.6005 1945.38,-32.2629"/>
<polygon fill="black" stroke="black" stroke-width="2.5" points="1946.11,-35.6887 1955.41,-30.6074 1944.98,-28.7821 1946.11,-35.6887"/>
</g>
<!-- DaughterIon_11 -->
<g id="node13" class="node"><title>DaughterIon_11</title>
<ellipse fill="none" stroke="#fde725" stroke-width="3" cx="2213.84" cy="-18" rx="88.2844" ry="18"/>
<text text-anchor="middle" x="2213.84" y="-14.3" font-family="Times New Roman,serif" font-size="14.00">188.1186 +/&#45; 0.00047</text>
</g>
<!-- ParentIon&#45;&gt;DaughterIon_11 -->
<g id="edge12" class="edge"><title>ParentIon&#45;&gt;DaughterIon_11</title>
<path fill="none" stroke="black" stroke-width="2.5" d="M1518.89,-84.9698C1648.2,-78.2609 1901.82,-62.8189 2115.84,-36 2124.09,-34.9661 2132.71,-33.7196 2141.26,-32.3771"/>
<polygon fill="black" stroke="black" stroke-width="2.5" points="2141.92,-35.8147 2151.24,-30.764 2140.81,-28.9044 2141.92,-35.8147"/>
</g>
<!-- DaughterIon_12 -->
<g id="node14" class="node"><title>DaughterIon_12</title>
<ellipse fill="none" stroke="#fde725" stroke-width="3" cx="2408.84" cy="-18" rx="88.2844" ry="18"/>
<text text-anchor="middle" x="2408.84" y="-14.3" font-family="Times New Roman,serif" font-size="14.00">203.1437 +/&#45; 0.00051</text>
</g>
<!-- ParentIon&#45;&gt;DaughterIon_12 -->
<g id="edge13" class="edge"><title>ParentIon&#45;&gt;DaughterIon_12</title>
<path fill="none" stroke="black" stroke-width="2.5" d="M1521.26,-86.9402C1679.32,-82.4993 2022.98,-69.5606 2310.84,-36 2319.23,-35.0227 2327.98,-33.7989 2336.66,-32.4584"/>
<polygon fill="black" stroke="black" stroke-width="2.5" points="2337.46,-35.8744 2346.78,-30.8389 2336.36,-28.9622 2337.46,-35.8744"/>
</g>
<!-- DaughterIon_13 -->
<g id="node15" class="node"><title>DaughterIon_13</title>
<ellipse fill="none" stroke="#fde725" stroke-width="3" cx="2603.84" cy="-18" rx="88.2844" ry="18"/>
<text text-anchor="middle" x="2603.84" y="-14.3" font-family="Times New Roman,serif" font-size="14.00">219.1745 +/&#45; 0.00055</text>
</g>
<!-- ParentIon&#45;&gt;DaughterIon_13 -->
<g id="edge14" class="edge"><title>ParentIon&#45;&gt;DaughterIon_13</title>
<path fill="none" stroke="black" stroke-width="2.5" d="M1522.03,-88.2857C1705.64,-85.997 2142.16,-76.3813 2505.84,-36 2514.38,-35.0516 2523.31,-33.8294 2532.14,-32.4758"/>
<polygon fill="black" stroke="black" stroke-width="2.5" points="2532.73,-35.9265 2542.06,-30.8992 2531.63,-29.0134 2532.73,-35.9265"/>
</g>
<!-- DaughterIon_14 -->
<g id="node16" class="node"><title>DaughterIon_14</title>
<ellipse fill="none" stroke="#fde725" stroke-width="3" cx="2798.84" cy="-18" rx="88.2844" ry="18"/>
<text text-anchor="middle" x="2798.84" y="-14.3" font-family="Times New Roman,serif" font-size="14.00">220.1779 +/&#45; 0.00055</text>
</g>
<!-- ParentIon&#45;&gt;DaughterIon_14 -->
<g id="edge15" class="edge"><title>ParentIon&#45;&gt;DaughterIon_14</title>
<path fill="none" stroke="black" stroke-width="2.5" d="M1522.46,-89.2441C1729.39,-88.9529 2260.3,-83.2224 2700.84,-36 2709.45,-35.0773 2718.44,-33.8641 2727.34,-32.5095"/>
<polygon fill="black" stroke="black" stroke-width="2.5" points="2728,-35.9497 2737.33,-30.9279 2726.9,-29.0359 2728,-35.9497"/>
</g>
</g>
</svg>
