<?xml version="1.0" encoding="UTF-8" standalone="no"?>
<!DOCTYPE svg PUBLIC "-//W3C//DTD SVG 1.1//EN"
 "http://www.w3.org/Graphics/SVG/1.1/DTD/svg11.dtd">
<!-- Generated by graphviz version 2.38.0 (20140413.2041)
 -->
<!-- Title: %3 Pages: 1 -->
<svg width="565pt" height="116pt"
 viewBox="0.00 0.00 565.23 116.00" xmlns="http://www.w3.org/2000/svg" xmlns:xlink="http://www.w3.org/1999/xlink">
<g id="graph0" class="graph" transform="scale(1 1) rotate(0) translate(4 112)">
<title>%3</title>
<polygon fill="white" stroke="none" points="-4,4 -4,-112 561.235,-112 561.235,4 -4,4"/>
<!-- ParentIon -->
<g id="node1" class="node"><title>ParentIon</title>
<ellipse fill="none" stroke="black" stroke-width="3" cx="273.843" cy="-90" rx="86.3847" ry="18"/>
<text text-anchor="middle" x="273.843" y="-86.3" font-family="Times New Roman,serif" font-size="14.00">151.0335 +/&#45; 7.6e&#45;05</text>
</g>
<!-- DaughterIon_0 -->
<g id="node2" class="node"><title>DaughterIon_0</title>
<ellipse fill="none" stroke="#440154" stroke-width="3" cx="83.8426" cy="-18" rx="83.6854" ry="18"/>
<text text-anchor="middle" x="83.8426" y="-14.3" font-family="Times New Roman,serif" font-size="14.00">77.0385 +/&#45; 0.00019</text>
</g>
<!-- ParentIon&#45;&gt;DaughterIon_0 -->
<g id="edge1" class="edge"><title>ParentIon&#45;&gt;DaughterIon_0</title>
<path fill="none" stroke="black" stroke-width="2.5" d="M233.083,-73.9832C204.057,-63.2897 164.873,-48.8533 133.939,-37.4565"/>
<polygon fill="black" stroke="black" stroke-width="2.5" points="134.802,-34.0445 124.208,-33.8716 132.382,-40.6129 134.802,-34.0445"/>
</g>
<!-- DaughterIon_1 -->
<g id="node3" class="node"><title>DaughterIon_1</title>
<ellipse fill="none" stroke="#23898e" stroke-width="3" cx="273.843" cy="-18" rx="88.2844" ry="18"/>
<text text-anchor="middle" x="273.843" y="-14.3" font-family="Times New Roman,serif" font-size="14.00">109.0113 +/&#45; 0.00027</text>
</g>
<!-- ParentIon&#45;&gt;DaughterIon_1 -->
<g id="edge2" class="edge"><title>ParentIon&#45;&gt;DaughterIon_1</title>
<path fill="none" stroke="black" stroke-width="2.5" d="M273.843,-71.6966C273.843,-63.9827 273.843,-54.7125 273.843,-46.1124"/>
<polygon fill="black" stroke="black" stroke-width="2.5" points="277.343,-46.1043 273.843,-36.1043 270.343,-46.1044 277.343,-46.1043"/>
</g>
<!-- DaughterIon_2 -->
<g id="node4" class="node"><title>DaughterIon_2</title>
<ellipse fill="none" stroke="#fde725" stroke-width="3" cx="468.843" cy="-18" rx="88.2844" ry="18"/>
<text text-anchor="middle" x="468.843" y="-14.3" font-family="Times New Roman,serif" font-size="14.00">141.0704 +/&#45; 0.00035</text>
</g>
<!-- ParentIon&#45;&gt;DaughterIon_2 -->
<g id="edge3" class="edge"><title>ParentIon&#45;&gt;DaughterIon_2</title>
<path fill="none" stroke="black" stroke-width="2.5" d="M315.197,-74.1548C345.085,-63.4256 385.652,-48.8633 417.596,-37.3961"/>
<polygon fill="black" stroke="black" stroke-width="2.5" points="418.983,-40.6172 427.212,-33.9443 416.618,-34.0288 418.983,-40.6172"/>
</g>
</g>
</svg>
